<svg version="1.1" viewBox="0.0 0.0 673.0341207349081 123.59580052493439" fill="none" stroke="none" stroke-linecap="square" stroke-miterlimit="10" xmlns:xlink="http://www.w3.org/1999/xlink" xmlns="http://www.w3.org/2000/svg"><clipPath id="p.0"><path d="m0 0l673.0341 0l0 123.5958l-673.0341 0l0 -123.5958z" clip-rule="nonzero"/></clipPath><g clip-path="url(#p.0)"><path fill="#000000" fill-opacity="0.0" d="m0 0l673.0341 0l0 123.5958l-673.0341 0z" fill-rule="evenodd"/><g filter="url(#shadowFilter-p.1)"><use xlink:href="#p.1" transform="matrix(1.0 0.0 0.0 1.0 2.0 0.0)"/></g><defs><filter id="shadowFilter-p.1" filterUnits="userSpaceOnUse"><feGaussianBlur in="SourceAlpha" stdDeviation="3.0" result="blur"/><feComponentTransfer in="blur" color-interpolation-filters="sRGB"><feFuncR type="linear" slope="0" intercept="0.52156866"/><feFuncG type="linear" slope="0" intercept="0.1254902"/><feFuncB type="linear" slope="0" intercept="0.047058824"/><feFuncA type="linear" slope="0.5" intercept="0"/></feComponentTransfer></filter></defs><g id="p.1"><path fill="#000000" fill-opacity="0.0" d="m0 -0.39632547l668.53546 0l0 122.80315l-668.53546 0z" fill-rule="evenodd"/><path fill="#a8aabc" d="m79.52493 86.25805l0 3.15625q0 1.109375 -1.203125 1.109375l-12.375 0q-5.875 0 -9.25 -3.328125q-3.375 -3.328125 -3.375 -9.296875l0 -18.265625q0 -5.96875 3.375 -9.296875q3.375 -3.328125 9.25 -3.328125l12.375 0q1.203125 0 1.203125 1.1875l0 3.15625q0 1.109375 -1.203125 1.109375l-11.6875 0q-7.078125 0 -7.078125 7.4375l0 17.734375q0 7.421875 7.078125 7.421875l11.6875 0q1.203125 0 1.203125 1.203125zm27.811539 4.265625l-7.34375 0q-5.875 0 -9.25 -3.328125q-3.375 -3.328125 -3.375 -9.296875l0 -18.265625q0 -5.96875 3.375 -9.296875q3.375 -3.328125 9.25 -3.328125l7.34375 0q5.890625 0 9.25 3.328125q3.375 3.328125 3.375 9.296875l0 18.265625q0 5.96875 -3.375 9.296875q-3.359375 3.328125 -9.25 3.328125zm-6.65625 -5.46875l5.96875 0q7.171875 0 7.171875 -7.328125l0 -17.921875q0 -7.34375 -7.171875 -7.34375l-5.96875 0q-7.171875 0 -7.171875 7.34375l0 17.921875q0 7.328125 7.171875 7.328125zm31.835922 -32.59375l-4.703125 0q-1.1875 0 -1.1875 -1.109375l0 -3.15625q0 -1.1875 1.1875 -1.1875l4.703125 0q0.84375 0 0.84375 -0.765625l0 -7.34375q0 -1.1875 1.203125 -1.1875l3.828125 0q1.109375 0 1.109375 1.1875l0 7.34375q0 0.765625 0.9375 0.765625l9.046875 0q1.28125 0 1.28125 1.1875l0 3.15625q0 1.109375 -1.28125 1.109375l-9.046875 0q-0.9375 0 -0.9375 0.78125l0 24.5625q0 7.25 7.515625 7.25l3.328125 0q1.28125 0 1.28125 1.203125l0 3.15625q0 1.109375 -1.28125 1.109375l-4.09375 0q-5.890625 0 -9.390625 -3.28125q-3.5 -3.28125 -3.5 -9.171875l0 -24.828125q0 -0.78125 -0.84375 -0.78125zm29.77951 0l-4.703125 0q-1.1875 0 -1.1875 -1.109375l0 -3.15625q0 -1.1875 1.1875 -1.1875l4.703125 0q0.84375 0 0.84375 -0.765625l0 -7.34375q0 -1.1875 1.203125 -1.1875l3.828125 0q1.109375 0 1.109375 1.1875l0 7.34375q0 0.765625 0.9375 0.765625l9.046875 0q1.28125 0 1.28125 1.1875l0 3.15625q0 1.109375 -1.28125 1.109375l-9.046875 0q-0.9375 0 -0.9375 0.78125l0 24.5625q0 7.25 7.515625 7.25l3.328125 0q1.28125 0 1.28125 1.203125l0 3.15625q0 1.109375 -1.28125 1.109375l-4.09375 0q-5.890625 0 -9.390625 -3.28125q-3.5 -3.28125 -3.5 -9.171875l0 -24.828125q0 -0.78125 -0.84375 -0.78125zm47.263885 38.0625l-7.34375 0q-5.875 0 -9.25 -3.328125q-3.375 -3.328125 -3.375 -9.296875l0 -18.265625q0 -5.96875 3.375 -9.296875q3.375 -3.328125 9.25 -3.328125l7.34375 0q5.890625 0 9.25 3.328125q3.375 3.328125 3.375 9.296875l0 18.265625q0 5.96875 -3.375 9.296875q-3.359375 3.328125 -9.25 3.328125zm-6.65625 -5.46875l5.96875 0q7.171875 0 7.171875 -7.328125l0 -17.921875q0 -7.34375 -7.171875 -7.34375l-5.96875 0q-7.171875 0 -7.171875 7.34375l0 17.921875q0 7.328125 7.171875 7.328125zm35.242172 5.46875l-3.84375 0q-1.1875 0 -1.1875 -1.1875l0 -41.140625q0 -1.1875 1.1875 -1.1875l3.84375 0q1.1875 0 1.1875 1.1875l0 3.328125l0.34375 0q2.140625 -4.515625 8.703125 -4.515625l4.78125 0q5.7968597 0 9.04686 3.328125q3.25 3.328125 3.25 9.296875l0 29.703125q0 1.1875 -1.203125 1.1875l-3.84375 0q-1.1875 0 -1.1875 -1.1875l0 -29.4375q0 -7.4375 -7.1718597 -7.4375l-4.78125 0q-3.828125 0 -5.890625 2.0625q-2.046875 2.046875 -2.046875 5.796875l0 29.015625q0 1.1875 -1.1875 1.1875zm55.125473 -2.296875l-4.78125 0q-5.796875 0 -9.046875 -3.328125q-3.234375 -3.328125 -3.234375 -9.3125l0 -15.953125q0 -5.96875 3.359375 -9.296875q3.375 -3.328125 9.265625 -3.328125l18.515625 0q1.1875 0 1.1875 1.1875l0 42.328125q0 5.890625 -3.375 9.25q-3.359375 3.375 -9.25 3.375l-15.703125 0q-1.28125 0 -1.28125 -1.1875l0 -3.15625q0 -1.203125 1.28125 -1.203125l14.9375 0q7.171875 0 7.171875 -7.328125l0 -6.578125l-0.34375 0q-2.21875 4.53125 -8.703125 4.53125zm9.046875 -13.3125l0 -21.671875q0 -0.78125 -0.859375 -0.78125l-11.859375 0q-7.171875 0 -7.171875 7.4375l0 15.4375q0 7.421875 7.171875 7.421875l4.78125 0q3.84375 0 5.890625 -2.046875q2.046875 -2.046875 2.046875 -5.796875zm47.861115 15.609375l-18.09375 0q-5.875 0 -9.25 -3.328125q-3.375 -3.328125 -3.375 -9.296875l0 -18.265625q0 -5.96875 3.375 -9.296875q3.375 -3.328125 9.25 -3.328125l7.171875 0q5.890625 0 9.21875 3.328125q3.328125 3.328125 3.328125 9.296875l0 10.84375q0 1.28125 -1.203125 1.28125l-24.140625 0q-0.859375 0 -0.859375 0.765625l0 5.203125q0 7.421875 7.171875 7.421875l17.40625 0q1.203125 0 1.203125 1.1875l0 3.078125q0 1.109375 -1.203125 1.109375zm-23.71875 -23.296875l18.4375 0q0.84375 0 0.84375 -0.84375l0 -6.578125q0 -7.34375 -7.171875 -7.34375l-5.796875 0q-7.171875 0 -7.171875 7.34375l0 6.578125q0 0.84375 0.859375 0.84375zm65.700195 23.296875l-18.09375 0q-5.875 0 -9.25 -3.328125q-3.375 -3.328125 -3.375 -9.296875l0 -18.265625q0 -5.96875 3.375 -9.296875q3.375 -3.328125 9.25 -3.328125l7.171875 0q5.890625 0 9.21875 3.328125q3.328125 3.328125 3.328125 9.296875l0 10.84375q0 1.28125 -1.203125 1.28125l-24.140625 0q-0.859375 0 -0.859375 0.765625l0 5.203125q0 7.421875 7.171875 7.421875l17.40625 0q1.203125 0 1.203125 1.1875l0 3.078125q0 1.109375 -1.203125 1.109375zm-23.71875 -23.296875l18.4375 0q0.84375 0 0.84375 -0.84375l0 -6.578125q0 -7.34375 -7.171875 -7.34375l-5.796875 0q-7.171875 0 -7.171875 7.34375l0 6.578125q0 0.84375 0.859375 0.84375zm60.49707 -20.21875l4.265625 0q0.6875 0 0.890625 0.390625q0.21875 0.375 -0.203125 0.96875l-12.546875 19.453125l0 0.34375l13.828125 21.0q0.34375 0.59375 0.078125 0.984375q-0.25 0.375 -0.9375 0.375l-4.015625 0q-1.609375 0 -2.375 -1.1875l-13.140625 -20.3125q-0.515625 -0.859375 0 -1.796875l12.109375 -19.109375q0.515625 -1.109375 2.046875 -1.109375zm-19.625 43.515625l-3.84375 0q-1.1875 0 -1.1875 -1.1875l0 -57.609375q0 -1.1875 1.1875 -1.1875l3.84375 0q1.1875 0 1.1875 1.1875l0 57.609375q0 1.1875 -1.1875 1.1875zm47.53473 0l-15.1875 0q-1.203125 0 -1.203125 -1.1875l0 -3.0q0 -1.109375 1.203125 -1.109375l14.328125 0q6.65625 0 6.65625 -4.9375l0 -1.625q0 -4.53125 -4.359375 -6.234375l-10.0625 -4.265625q-4.359375 -1.78125 -6.234375 -4.21875q-1.875 -2.4375 -1.875 -6.4375q0 -10.5 11.515625 -10.5l14.0 0q1.1875 0 1.1875 1.1875l0 2.984375q0 1.109375 -1.1875 1.109375l-12.890625 0q-3.0625 0 -4.640625 1.28125q-1.578125 1.28125 -1.578125 3.0l0 1.4375q0 3.59375 4.859375 5.46875l10.0625 4.515625q4.4375 1.71875 6.015625 4.53125q1.578125 2.8125 1.578125 7.765625q0 10.234375 -12.1875 10.234375zm77.38608 -41.46875l0 3.078125q0 1.265625 -1.109375 1.609375l-27.390656 9.140625l27.390656 9.203125q1.109375 0.171875 1.109375 1.546875l0 3.15625q0 1.359375 -1.453125 0.84375l-30.890656 -11.171875q-1.453125 -0.59375 -1.453125 -2.046875l0 -2.984375q0 -1.53125 1.453125 -2.046875l30.890656 -11.1875q1.453125 -0.5 1.453125 0.859375zm14.678223 41.46875l-3.5 0q-1.53125 0 -1.03125 -1.359375q1.375 -3.421875 9.6875 -26.5q8.328125 -23.078125 9.34375 -25.734375q0.515625 -1.265625 1.625 -1.265625l3.578125 0q1.453125 0 0.859375 1.4375l-18.9375 52.140625q-0.4375 1.28125 -1.625 1.28125zm31.318726 -38.390625l0 -3.078125q0 -1.359375 1.4375 -0.859375l30.890625 11.1875q1.453125 0.515625 1.453125 2.046875l0 2.984375q0 1.453125 -1.453125 2.046875l-30.890625 11.171875q-1.4375 0.515625 -1.4375 -0.84375l0 -3.15625q0 -1.375 1.109375 -1.546875l27.390625 -9.203125l-27.390625 -9.140625q-1.109375 -0.34375 -1.109375 -1.609375z" fill-rule="nonzero"/></g><path fill="#000000" fill-opacity="0.0" d="m0 183.01837l668.53546 0l0 122.80316l-668.53546 0z" fill-rule="evenodd"/><path fill="#000000" d="m79.52493 269.67276l0 3.15625q0 1.109375 -1.203125 1.109375l-12.375 0q-5.875 0 -9.25 -3.328125q-3.375 -3.328125 -3.375 -9.296875l0 -18.26564q0 -5.96875 3.375 -9.296875q3.375 -3.328125 9.25 -3.328125l12.375 0q1.203125 0 1.203125 1.1875l0 3.15625q0 1.109375 -1.203125 1.109375l-11.6875 0q-7.078125 0 -7.078125 7.4375l0 17.73439q0 7.421875 7.078125 7.421875l11.6875 0q1.203125 0 1.203125 1.203125zm27.811539 4.265625l-7.34375 0q-5.875 0 -9.25 -3.328125q-3.375 -3.328125 -3.375 -9.296875l0 -18.26564q0 -5.96875 3.375 -9.296875q3.375 -3.328125 9.25 -3.328125l7.34375 0q5.890625 0 9.25 3.328125q3.375 3.328125 3.375 9.296875l0 18.26564q0 5.96875 -3.375 9.296875q-3.359375 3.328125 -9.25 3.328125zm-6.65625 -5.46875l5.96875 0q7.171875 0 7.171875 -7.328125l0 -17.92189q0 -7.34375 -7.171875 -7.34375l-5.96875 0q-7.171875 0 -7.171875 7.34375l0 17.92189q0 7.328125 7.171875 7.328125zm31.835922 -32.593765l-4.703125 0q-1.1875 0 -1.1875 -1.109375l0 -3.15625q0 -1.1875 1.1875 -1.1875l4.703125 0q0.84375 0 0.84375 -0.765625l0 -7.34375q0 -1.1875 1.203125 -1.1875l3.828125 0q1.109375 0 1.109375 1.1875l0 7.34375q0 0.765625 0.9375 0.765625l9.046875 0q1.28125 0 1.28125 1.1875l0 3.15625q0 1.109375 -1.28125 1.109375l-9.046875 0q-0.9375 0 -0.9375 0.78125l0 24.562515q0 7.25 7.515625 7.25l3.328125 0q1.28125 0 1.28125 1.203125l0 3.15625q0 1.109375 -1.28125 1.109375l-4.09375 0q-5.890625 0 -9.390625 -3.28125q-3.5 -3.28125 -3.5 -9.171875l0 -24.82814q0 -0.78125 -0.84375 -0.78125zm29.77951 0l-4.703125 0q-1.1875 0 -1.1875 -1.109375l0 -3.15625q0 -1.1875 1.1875 -1.1875l4.703125 0q0.84375 0 0.84375 -0.765625l0 -7.34375q0 -1.1875 1.203125 -1.1875l3.828125 0q1.109375 0 1.109375 1.1875l0 7.34375q0 0.765625 0.9375 0.765625l9.046875 0q1.28125 0 1.28125 1.1875l0 3.15625q0 1.109375 -1.28125 1.109375l-9.046875 0q-0.9375 0 -0.9375 0.78125l0 24.562515q0 7.25 7.515625 7.25l3.328125 0q1.28125 0 1.28125 1.203125l0 3.15625q0 1.109375 -1.28125 1.109375l-4.09375 0q-5.890625 0 -9.390625 -3.28125q-3.5 -3.28125 -3.5 -9.171875l0 -24.82814q0 -0.78125 -0.84375 -0.78125zm47.263885 38.062515l-7.34375 0q-5.875 0 -9.25 -3.328125q-3.375 -3.328125 -3.375 -9.296875l0 -18.26564q0 -5.96875 3.375 -9.296875q3.375 -3.328125 9.25 -3.328125l7.34375 0q5.890625 0 9.25 3.328125q3.375 3.328125 3.375 9.296875l0 18.26564q0 5.96875 -3.375 9.296875q-3.359375 3.328125 -9.25 3.328125zm-6.65625 -5.46875l5.96875 0q7.171875 0 7.171875 -7.328125l0 -17.92189q0 -7.34375 -7.171875 -7.34375l-5.96875 0q-7.171875 0 -7.171875 7.34375l0 17.92189q0 7.328125 7.171875 7.328125zm35.242172 5.46875l-3.84375 0q-1.1875 0 -1.1875 -1.1875l0 -41.14064q0 -1.1875 1.1875 -1.1875l3.84375 0q1.1875 0 1.1875 1.1875l0 3.328125l0.34375 0q2.140625 -4.515625 8.703125 -4.515625l4.78125 0q5.7968597 0 9.04686 3.328125q3.25 3.328125 3.25 9.296875l0 29.70314q0 1.1875 -1.203125 1.1875l-3.84375 0q-1.1875 0 -1.1875 -1.1875l0 -29.437515q0 -7.4375 -7.1718597 -7.4375l-4.78125 0q-3.828125 0 -5.890625 2.0625q-2.046875 2.046875 -2.046875 5.796875l0 29.01564q0 1.1875 -1.1875 1.1875zm55.125473 -2.296875l-4.78125 0q-5.796875 0 -9.046875 -3.328125q-3.234375 -3.328125 -3.234375 -9.3125l0 -15.95314q0 -5.96875 3.359375 -9.296875q3.375 -3.328125 9.265625 -3.328125l18.515625 0q1.1875 0 1.1875 1.1875l0 42.32814q0 5.890625 -3.375 9.25q-3.359375 3.375 -9.25 3.375l-15.703125 0q-1.28125 0 -1.28125 -1.1875l0 -3.15625q0 -1.203125 1.28125 -1.203125l14.9375 0q7.171875 0 7.171875 -7.328125l0 -6.578125l-0.34375 0q-2.21875 4.53125 -8.703125 4.53125zm9.046875 -13.3125l0 -21.67189q0 -0.78125 -0.859375 -0.78125l-11.859375 0q-7.171875 0 -7.171875 7.4375l0 15.437515q0 7.421875 7.171875 7.421875l4.78125 0q3.84375 0 5.890625 -2.046875q2.046875 -2.046875 2.046875 -5.796875zm47.861115 15.609375l-18.09375 0q-5.875 0 -9.25 -3.328125q-3.375 -3.328125 -3.375 -9.296875l0 -18.26564q0 -5.96875 3.375 -9.296875q3.375 -3.328125 9.25 -3.328125l7.171875 0q5.890625 0 9.21875 3.328125q3.328125 3.328125 3.328125 9.296875l0 10.84375q0 1.28125 -1.203125 1.28125l-24.140625 0q-0.859375 0 -0.859375 0.765625l0 5.2031403q0 7.421875 7.171875 7.421875l17.40625 0q1.203125 0 1.203125 1.1875l0 3.078125q0 1.109375 -1.203125 1.109375zm-23.71875 -23.29689l18.4375 0q0.84375 0 0.84375 -0.84375l0 -6.578125q0 -7.34375 -7.171875 -7.34375l-5.796875 0q-7.171875 0 -7.171875 7.34375l0 6.578125q0 0.84375 0.859375 0.84375zm65.700195 23.29689l-18.09375 0q-5.875 0 -9.25 -3.328125q-3.375 -3.328125 -3.375 -9.296875l0 -18.26564q0 -5.96875 3.375 -9.296875q3.375 -3.328125 9.25 -3.328125l7.171875 0q5.890625 0 9.21875 3.328125q3.328125 3.328125 3.328125 9.296875l0 10.84375q0 1.28125 -1.203125 1.28125l-24.140625 0q-0.859375 0 -0.859375 0.765625l0 5.2031403q0 7.421875 7.171875 7.421875l17.40625 0q1.203125 0 1.203125 1.1875l0 3.078125q0 1.109375 -1.203125 1.109375zm-23.71875 -23.29689l18.4375 0q0.84375 0 0.84375 -0.84375l0 -6.578125q0 -7.34375 -7.171875 -7.34375l-5.796875 0q-7.171875 0 -7.171875 7.34375l0 6.578125q0 0.84375 0.859375 0.84375zm60.49707 -20.21875l4.265625 0q0.6875 0 0.890625 0.390625q0.21875 0.375 -0.203125 0.96875l-12.546875 19.453125l0 0.34375l13.828125 21.000015q0.34375 0.59375 0.078125 0.984375q-0.25 0.375 -0.9375 0.375l-4.015625 0q-1.609375 0 -2.375 -1.1875l-13.140625 -20.312515q-0.515625 -0.859375 0 -1.796875l12.109375 -19.109375q0.515625 -1.109375 2.046875 -1.109375zm-19.625 43.51564l-3.84375 0q-1.1875 0 -1.1875 -1.1875l0 -57.60939q0 -1.1875 1.1875 -1.1875l3.84375 0q1.1875 0 1.1875 1.1875l0 57.60939q0 1.1875 -1.1875 1.1875zm47.53473 0l-15.1875 0q-1.203125 0 -1.203125 -1.1875l0 -3.0q0 -1.109375 1.203125 -1.109375l14.328125 0q6.65625 0 6.65625 -4.9375l0 -1.625q0 -4.53125 -4.359375 -6.2343903l-10.0625 -4.265625q-4.359375 -1.78125 -6.234375 -4.21875q-1.875 -2.4375 -1.875 -6.4375q0 -10.5 11.515625 -10.5l14.0 0q1.1875 0 1.1875 1.1875l0 2.984375q0 1.109375 -1.1875 1.109375l-12.890625 0q-3.0625 0 -4.640625 1.28125q-1.578125 1.28125 -1.578125 3.0l0 1.4375q0 3.59375 4.859375 5.46875l10.0625 4.515625q4.4375 1.71875 6.015625 4.53125q1.578125 2.8125153 1.578125 7.7656403q0 10.234375 -12.1875 10.234375zm77.38608 -41.468765l0 3.078125q0 1.265625 -1.109375 1.609375l-27.390656 9.140625l27.390656 9.203125q1.109375 0.171875 1.109375 1.5468903l0 3.15625q0 1.359375 -1.453125 0.84375l-30.890656 -11.17189q-1.453125 -0.59375 -1.453125 -2.046875l0 -2.984375q0 -1.53125 1.453125 -2.046875l30.890656 -11.1875q1.453125 -0.5 1.453125 0.859375zm14.678223 41.468765l-3.5 0q-1.53125 0 -1.03125 -1.359375q1.375 -3.421875 9.6875 -26.500015q8.328125 -23.078125 9.34375 -25.734375q0.515625 -1.265625 1.625 -1.265625l3.578125 0q1.453125 0 0.859375 1.4375l-18.9375 52.14064q-0.4375 1.28125 -1.625 1.28125zm31.318726 -38.39064l0 -3.078125q0 -1.359375 1.4375 -0.859375l30.890625 11.1875q1.453125 0.515625 1.453125 2.046875l0 2.984375q0 1.453125 -1.453125 2.046875l-30.890625 11.17189q-1.4375 0.515625 -1.4375 -0.84375l0 -3.15625q0 -1.3750153 1.109375 -1.5468903l27.390625 -9.203125l-27.390625 -9.140625q-1.109375 -0.34375 -1.109375 -1.609375z" fill-rule="nonzero"/></g></svg>